<svg aria-hidden="true" style="position: absolute; width: 0; height: 0; overflow: hidden;" version="1.1" xmlns="http://www.w3.org/2000/svg" xmlns:xlink="http://www.w3.org/1999/xlink">
<defs>
<symbol id="icon-orange-rigth-group" viewBox="0 0 33 32">
<path fill="#ff6b08" style="fill: var(--color1, #ff6b08)" d="M22.215 0c-6.812 0-12.335 5.522-12.335 12.335 0 0.246 0.007 0.491 0.021 0.734 0.030 0.514-0.399 0.955-0.914 0.955-4.964 0-8.988 4.024-8.988 8.988s4.024 8.988 8.988 8.988c3.801 0 7.051-2.359 8.365-5.693 0.46-1.166 1.736-1.971 2.974-1.781 0.616 0.095 1.246 0.144 1.888 0.144 6.812 0 12.335-5.522 12.335-12.335s-5.522-12.335-12.335-12.335z"></path>
</symbol>
<symbol id="icon-white-rigth-group" viewBox="0 0 30 32">
<path fill="#fff" style="fill: var(--color2, #fff)" d="M21.805 0.010c-6.686 0-12.107 5.42-12.107 12.107v0.448c0 0.184 0.004 0.367 0.012 0.549 0.022 0.496-0.392 0.916-0.888 0.916-4.872 0-8.822 3.95-8.822 8.822v0.326c0 4.872 3.95 8.822 8.822 8.822 3.852 0 7.128-2.469 8.33-5.911 0.368-1.053 1.5-1.779 2.599-1.591 0.667 0.114 1.353 0.173 2.053 0.173 6.687 0 12.107-5.421 12.107-12.107v-0.448c0-6.686-5.421-12.107-12.107-12.107z"></path>
</symbol>
<symbol id="icon-left-group" viewBox="0 0 20 32">
<path fill="#fff" style="fill: var(--color2, #fff)" d="M20.121 25.212c0 4.987-4.043 9.030-9.030 9.030s-9.030-4.043-9.030-9.030c0-4.987 4.043-9.030 9.030-9.030s9.030 4.043 9.030 9.030z"></path>
<path fill="#fff" style="fill: var(--color2, #fff)" d="M7.152 11.273c0 1.975-1.601 3.576-3.576 3.576s-3.576-1.601-3.576-3.576c0-1.975 1.601-3.576 3.576-3.576s3.576 1.601 3.576 3.576z"></path>
<path fill="#fff" style="fill: var(--color2, #fff)" d="M10.121 1.455c0 0.803-0.651 1.455-1.455 1.455s-1.455-0.651-1.455-1.455c0-0.803 0.651-1.455 1.455-1.455s1.455 0.651 1.455 1.455z"></path>
<path fill="#ff6b08" style="fill: var(--color1, #ff6b08)" d="M19.636 24.364c0 4.217-3.419 7.636-7.636 7.636s-7.636-3.419-7.636-7.636c0-4.217 3.419-7.636 7.636-7.636s7.636 3.419 7.636 7.636z"></path>
</symbol>
<symbol id="icon-orange-rigth-big-circle" viewBox="0 0 32 32">
<path fill="#ff6b08" style="fill: var(--color1, #ff6b08)" d="M32 16c0 8.837-7.163 16-16 16s-16-7.163-16-16c0-8.837 7.163-16 16-16s16 7.163 16 16z"></path>
</symbol>
</defs>
</svg>
